<?xml version="1.0" encoding="UTF-8" standalone="no"?>
<svg
   xmlns:dc="http://purl.org/dc/elements/1.1/"
   xmlns:cc="http://creativecommons.org/ns#"
   xmlns:rdf="http://www.w3.org/1999/02/22-rdf-syntax-ns#"
   xmlns:svg="http://www.w3.org/2000/svg"
   xmlns="http://www.w3.org/2000/svg"
   xmlns:sodipodi="http://sodipodi.sourceforge.net/DTD/sodipodi-0.dtd"
   xmlns:inkscape="http://www.inkscape.org/namespaces/inkscape"
   width="458.6987pt"
   height="503.06247pt"
   version="1.1"
   viewBox="0 0 458.6987 503.06247"
   id="svg330"
   sodipodi:docname="jacket-black.svg"
   inkscape:version="1.0.1 (3bc2e813f5, 2020-09-07)">
  <metadata
     id="metadata334">
    <rdf:RDF>
      <cc:Work
         rdf:about="">
        <dc:format>image/svg+xml</dc:format>
        <dc:type
           rdf:resource="http://purl.org/dc/dcmitype/StillImage" />
        <dc:title></dc:title>
      </cc:Work>
    </rdf:RDF>
  </metadata>
  <sodipodi:namedview
     pagecolor="#ffffff"
     bordercolor="#666666"
     borderopacity="1"
     objecttolerance="10"
     gridtolerance="10"
     guidetolerance="10"
     inkscape:pageopacity="0"
     inkscape:pageshadow="2"
     inkscape:window-width="1370"
     inkscape:window-height="831"
     id="namedview332"
     showgrid="false"
     inkscape:zoom="0.63428571"
     inkscape:cx="305.79833"
     inkscape:cy="428.71267"
     inkscape:window-x="0"
     inkscape:window-y="0"
     inkscape:window-maximized="0"
     inkscape:current-layer="g328"
     fit-margin-top="0"
     fit-margin-left="0"
     fit-margin-right="0"
     fit-margin-bottom="0"
     inkscape:pagecheckerboard="true" />
  <defs
     id="defs236">
    <symbol
       id="u"
       overflow="visible">
      <path
         d="m 18.766,-1.125 c -0.96875,0.5 -1.9805,0.875 -3.0312,1.125 -1.043,0.25781 -2.1367,0.39062 -3.2812,0.39062 -3.3984,0 -6.0898,-0.94531 -8.0781,-2.8438 -1.9922,-1.9062 -2.9844,-4.4844 -2.9844,-7.7344 0,-3.2578 0.99219,-5.8359 2.9844,-7.7344 1.9883,-1.9062 4.6797,-2.8594 8.0781,-2.8594 1.1445,0 2.2383,0.13281 3.2812,0.39062 1.0508,0.25 2.0625,0.625 3.0312,1.125 v 4.2188 c -0.98047,-0.65625 -1.9453,-1.1406 -2.8906,-1.4531 -0.94922,-0.3125 -1.9492,-0.46875 -3,-0.46875 -1.875,0 -3.3516,0.60547 -4.4219,1.8125 -1.0742,1.1992 -1.6094,2.8555 -1.6094,4.9688 0,2.1055 0.53516,3.7617 1.6094,4.9688 1.0703,1.1992 2.5469,1.7969 4.4219,1.7969 1.0508,0 2.0508,-0.14844 3,-0.45312 0.94531,-0.3125 1.9102,-0.80078 2.8906,-1.4688 z"
         id="path173" />
    </symbol>
    <symbol
       id="d"
       overflow="visible">
      <path
         d="m 13.734,-11.141 c -0.4375,-0.19531 -0.87109,-0.34375 -1.2969,-0.4375 -0.41797,-0.10156 -0.83984,-0.15625 -1.2656,-0.15625 -1.2617,0 -2.2305,0.40625 -2.9062,1.2188 -0.67969,0.80469 -1.0156,1.9531 -1.0156,3.4531 v 7.0625 H 2.3591 v -15.312 h 4.8906 v 2.5156 c 0.625,-1 1.3438,-1.7266 2.1562,-2.1875 0.82031,-0.46875 1.8008,-0.70312 2.9375,-0.70312 0.16406,0 0.34375,0.01172 0.53125,0.03125 0.19531,0.01172 0.47656,0.03906 0.84375,0.07813 z"
         id="path176" />
    </symbol>
    <symbol
       id="c"
       overflow="visible">
      <path
         d="m 17.641,-7.7031 v 1.4062 H 6.188 c 0.125,1.1484 0.53906,2.0078 1.25,2.5781 0.70703,0.57422 1.7031,0.85938 2.9844,0.85938 1.0312,0 2.082,-0.14844 3.1562,-0.45312 1.082,-0.3125 2.1914,-0.77344 3.3281,-1.3906 v 3.7656 c -1.1562,0.4375 -2.3125,0.76562 -3.4688,0.98438 -1.1562,0.22656 -2.3125,0.34375 -3.4688,0.34375 -2.7734,0 -4.9297,-0.70312 -6.4688,-2.1094 -1.5312,-1.4062 -2.2969,-3.3789 -2.2969,-5.9219 0,-2.5 0.75391,-4.4609 2.2656,-5.8906 1.5078,-1.4375 3.582,-2.1562 6.2188,-2.1562 2.4062,0 4.332,0.73047 5.7812,2.1875 1.4453,1.4492 2.1719,3.3828 2.1719,5.7969 z m -5.0312,-1.625 c 0,-0.92578 -0.27344,-1.6719 -0.8125,-2.2344 -0.54297,-0.57031 -1.25,-0.85938 -2.125,-0.85938 -0.94922,0 -1.7188,0.26562 -2.3125,0.79688 -0.5937,0.53126 -0.96484,1.2969 -1.1094,2.2969 z"
         id="path179" />
    </symbol>
    <symbol
       id="e"
       overflow="visible">
      <path
         d="m 9.2188,-6.8906 c -1.0234,0 -1.793,0.17188 -2.3125,0.51562 -0.51172,0.34375 -0.76562,0.85547 -0.76562,1.5312 0,0.625 0.20703,1.1172 0.625,1.4688 0.41406,0.34375 0.98828,0.51562 1.7188,0.51562 0.92578,0 1.7031,-0.32812 2.3281,-0.98438 0.63281,-0.66406 0.95312,-1.4922 0.95312,-2.4844 v -0.5625 z m 7.4688,-1.8438 V 0 h -4.9219 v -2.2656 c -0.65625,0.92969 -1.3984,1.6055 -2.2188,2.0312 -0.82422,0.41406 -1.8242,0.625 -3,0.625 -1.5859,0 -2.8711,-0.45703 -3.8594,-1.375 -0.99219,-0.92578 -1.4844,-2.1289 -1.4844,-3.6094 0,-1.7891 0.61328,-3.1016 1.8438,-3.9375 1.2383,-0.84375 3.1797,-1.2656 5.8281,-1.2656 h 2.8906 v -0.39062 c 0,-0.76953 -0.30859,-1.332 -0.92188,-1.6875 -0.61719,-0.36328 -1.5703,-0.54688 -2.8594,-0.54688 -1.0547,0 -2.0312,0.10547 -2.9375,0.3125 -0.89844,0.21094 -1.7305,0.52344 -2.5,0.9375 v -3.7344 c 1.0391,-0.25 2.0859,-0.44141 3.1406,-0.57812 1.0625,-0.13281 2.125,-0.20312 3.1875,-0.20312 2.7578,0 4.75,0.54688 5.9688,1.6406 1.2266,1.0859 1.8438,2.8555 1.8438,5.3125 z"
         id="path182" />
    </symbol>
    <symbol
       id="b"
       overflow="visible">
      <path
         d="m 7.7031,-19.656 v 4.3438 H 12.75 v 3.5 H 7.7031 v 6.5 c 0,0.71094 0.14062,1.1875 0.42188,1.4375 0.28126,0.25 0.83594,0.375 1.6719,0.375 h 2.5156 v 3.5 h -4.1875 c -1.9375,0 -3.3125,-0.39844 -4.125,-1.2031 -0.80469,-0.8125 -1.2031,-2.1797 -1.2031,-4.1094 v -6.5 h -2.4219 v -3.5 h 2.4219 v -4.3438 z"
         id="path185" />
    </symbol>
    <symbol
       id="k"
       overflow="visible">
      <path
         d="m 12.766,-13.078 v -8.2031 h 4.9219 V -10e-5 H 12.766 v -2.2188 c -0.66797,0.90625 -1.4062,1.5703 -2.2188,1.9844 -0.8126,0.4141 -1.7578,0.625 -2.8281,0.625 -1.8867,0 -3.4336,-0.75 -4.6406,-2.25 -1.2109,-1.5 -1.8125,-3.4258 -1.8125,-5.7812 0,-2.3633 0.60156,-4.2969 1.8125,-5.7969 1.207,-1.5 2.7539,-2.25 4.6406,-2.25 1.0625,0 2,0.21484 2.8125,0.64062 0.82031,0.42969 1.5664,1.0859 2.2344,1.9688 z m -3.2188,9.9219 c 1.0391,0 1.8359,-0.37891 2.3906,-1.1406 0.55078,-0.76953 0.82812,-1.8828 0.82812,-3.3438 0,-1.457 -0.27734,-2.5664 -0.82812,-3.3281 -0.55469,-0.76953 -1.3516,-1.1562 -2.3906,-1.1562 -1.043,0 -1.8398,0.38672 -2.3906,1.1562 -0.55469,0.76172 -0.82812,1.8711 -0.82812,3.3281 0,1.4609 0.27344,2.5742 0.82812,3.3438 0.55078,0.76172 1.3477,1.1406 2.3906,1.1406 z"
         id="path188" />
    </symbol>
    <symbol
       id="j"
       overflow="visible">
      <path
         d="m 10.5,-3.1562 c 1.0508,0 1.8516,-0.37891 2.4062,-1.1406 0.55078,-0.76953 0.82812,-1.8828 0.82812,-3.3438 0,-1.457 -0.27734,-2.5664 -0.82812,-3.3281 -0.55469,-0.76953 -1.3555,-1.1562 -2.4062,-1.1562 -1.0547,0 -1.8594,0.38672 -2.4219,1.1562 -0.55469,0.77344 -0.82812,1.8828 -0.82812,3.3281 0,1.4492 0.27344,2.5586 0.82812,3.3281 0.5625,0.77344 1.3672,1.1562 2.4219,1.1562 z m -3.25,-9.9219 c 0.67578,-0.88281 1.4219,-1.5391 2.2344,-1.9688 0.82031,-0.42578 1.7656,-0.64062 2.8281,-0.64062 1.8945,0 3.4453,0.75 4.6562,2.25 1.207,1.5 1.8125,3.4336 1.8125,5.7969 0,2.3555 -0.60547,4.2812 -1.8125,5.7812 -1.2109,1.5 -2.7617,2.25 -4.6562,2.25 -1.0625,0 -2.0078,-0.21094 -2.8281,-0.625 C 8.6719,-0.6602 7.9258,-1.32032 7.25,-2.21882 V -2e-5 H 2.3594 v -21.281 H 7.25 Z"
         id="path191" />
    </symbol>
    <symbol
       id="i"
       overflow="visible">
      <path
         d="m 0.34375,-15.312 h 4.8906 l 4.125,10.391 3.5,-10.391 h 4.8906 l -6.4375,16.766 c -0.64844,1.6953 -1.4023,2.8828 -2.2656,3.5625 -0.86719,0.6875 -2,1.0312 -3.4062,1.0312 H 2.79685 V 2.8289 h 1.5312 c 0.83203,0 1.4375,-0.13672 1.8125,-0.40625 C 6.52336,2.16093 6.82024,1.69218 7.03117,1.01645 L 7.17179,0.59457 Z"
         id="path194" />
    </symbol>
    <symbol
       id="h"
       overflow="visible">
      <path
         d="M 7.25,-2.2188 V 5.8281 H 2.3594 v -21.141 H 7.25 v 2.2344 c 0.67578,-0.88281 1.4219,-1.5391 2.2344,-1.9688 0.82031,-0.42578 1.7656,-0.64062 2.8281,-0.64062 1.8945,0 3.4453,0.75 4.6562,2.25 1.207,1.5 1.8125,3.4336 1.8125,5.7969 0,2.3555 -0.60547,4.2812 -1.8125,5.7812 -1.2109,1.5 -2.7617,2.25 -4.6562,2.25 -1.0625,0 -2.0078,-0.21094 -2.8281,-0.625 C 8.6719,-0.6606 7.9258,-1.32072 7.25,-2.21922 Z m 3.25,-9.9062 c -1.0547,0 -1.8594,0.38672 -2.4219,1.1562 -0.55469,0.77344 -0.82812,1.8828 -0.82812,3.3281 0,1.4492 0.27344,2.5586 0.82812,3.3281 0.5625,0.77344 1.3672,1.1562 2.4219,1.1562 1.0508,0 1.8516,-0.37891 2.4062,-1.1406 0.55078,-0.76953 0.82812,-1.8828 0.82812,-3.3438 0,-1.457 -0.27734,-2.5664 -0.82812,-3.3281 -0.55469,-0.76953 -1.3555,-1.1562 -2.4062,-1.1562 z"
         id="path197" />
    </symbol>
    <symbol
       id="t"
       overflow="visible">
      <path
         d="M 2.3594,-15.312 H 7.25 V 0 H 2.3594 Z m 0,-5.9688 H 7.25 v 4 H 2.3594 Z"
         id="path200" />
    </symbol>
    <symbol
       id="g"
       overflow="visible">
      <path
         d="m 14.719,-14.828 v 3.9844 c -0.65625,-0.45703 -1.3242,-0.79688 -2,-1.0156 -0.66797,-0.21875 -1.3594,-0.32812 -2.0781,-0.32812 -1.3672,0 -2.4336,0.40234 -3.2031,1.2031 -0.76172,0.79297 -1.1406,1.9062 -1.1406,3.3438 0,1.4297 0.37891,2.543 1.1406,3.3438 0.76953,0.79297 1.8359,1.1875 3.2031,1.1875 0.75781,0 1.4844,-0.10938 2.1719,-0.32812 0.6875,-0.22656 1.3203,-0.56641 1.9062,-1.0156 v 4 c -0.76172,0.28125 -1.5391,0.48828 -2.3281,0.625 -0.78125,0.14453 -1.5742,0.21875 -2.375,0.21875 -2.7617,0 -4.9219,-0.70703 -6.4844,-2.125 -1.5547,-1.4141 -2.3281,-3.3828 -2.3281,-5.9062 0,-2.5312 0.77344,-4.5039 2.3281,-5.9219 1.5625,-1.4141 3.7227,-2.125 6.4844,-2.125 0.80078,0 1.5938,0.07422 2.375,0.21875 0.78125,0.13672 1.5547,0.35156 2.3281,0.64062 z"
         id="path203" />
    </symbol>
    <symbol
       id="f"
       overflow="visible">
      <path
         d="M 17.75,-9.3281 V 0 h -4.9219 v -7.1406 c 0,-1.3203 -0.03125,-2.2344 -0.09375,-2.7344 -0.0625,-0.5 -0.16797,-0.86719 -0.3125,-1.1094 -0.1875,-0.3125 -0.44922,-0.55469 -0.78125,-0.73438 -0.32422,-0.17578 -0.69531,-0.26562 -1.1094,-0.26562 -1.0234,0 -1.8242,0.39844 -2.4062,1.1875 -0.58594,0.78125 -0.875,1.8711 -0.875,3.2656 V -1e-4 H 2.3594 v -15.312 H 7.25 v 2.2344 c 0.73828,-0.88281 1.5195,-1.5391 2.3438,-1.9688 0.83203,-0.42578 1.75,-0.64062 2.75,-0.64062 1.7695,0 3.1133,0.54688 4.0312,1.6406 0.91406,1.0859 1.375,2.6562 1.375,4.7188 z"
         id="path206" />
    </symbol>
    <symbol
       id="a"
       overflow="visible">
      <path
         d="m 9.6406,-12.188 c -1.0859,0 -1.9141,0.39062 -2.4844,1.1719 -0.57422,0.78125 -0.85938,1.9062 -0.85938,3.375 0,1.4688 0.28516,2.5938 0.85938,3.375 0.57031,0.77344 1.3984,1.1562 2.4844,1.1562 1.0625,0 1.875,-0.38281 2.4375,-1.1562 0.57031,-0.78125 0.85938,-1.9062 0.85938,-3.375 0,-1.4688 -0.28906,-2.5938 -0.85938,-3.375 -0.5625,-0.78125 -1.375,-1.1719 -2.4375,-1.1719 z m 0,-3.5 c 2.6328,0 4.6914,0.71484 6.1719,2.1406 1.4766,1.418 2.2188,3.3867 2.2188,5.9062 0,2.5117 -0.74219,4.4805 -2.2188,5.9062 C 14.332,-0.317 12.2734,0.39 9.6406,0.39 6.9922,0.39 4.9258,-0.31703 3.4375,-1.735 1.9453,-3.1608 1.2031,-5.1295 1.2031,-7.6412 c 0,-2.5195 0.74219,-4.4883 2.2344,-5.9062 1.4883,-1.4258 3.5547,-2.1406 6.2031,-2.1406 z"
         id="path209" />
    </symbol>
    <symbol
       id="s"
       overflow="visible">
      <path
         d="m 14.312,-14.828 v 3.7188 c -1.043,-0.4375 -2.0547,-0.76562 -3.0312,-0.98438 -0.98047,-0.21875 -1.9023,-0.32812 -2.7656,-0.32812 -0.92969,0 -1.6211,0.11719 -2.0781,0.34375 -0.44922,0.23047 -0.67188,0.58984 -0.67188,1.0781 0,0.38672 0.17188,0.68359 0.51562,0.89062 0.34375,0.21094 0.95703,0.36719 1.8438,0.46875 l 0.85938,0.125 c 2.5078,0.32422 4.1953,0.85156 5.0625,1.5781 0.86328,0.73047 1.2969,1.8711 1.2969,3.4219 0,1.6367 -0.60547,2.8672 -1.8125,3.6875 -1.1992,0.8125 -2.9922,1.2188 -5.375,1.2188 -1.0234,0 -2.0742,-0.078125 -3.1562,-0.23438 -1.0742,-0.15625 -2.1797,-0.39453 -3.3125,-0.71875 v -3.7188 c 0.96875,0.48047 1.9609,0.83984 2.9844,1.0781 1.0312,0.23047 2.0781,0.34375 3.1406,0.34375 0.95703,0 1.6758,-0.12891 2.1562,-0.39062 0.47656,-0.26953 0.71875,-0.66406 0.71875,-1.1875 0,-0.4375 -0.16797,-0.75781 -0.5,-0.96875 -0.33594,-0.21875 -0.99609,-0.38281 -1.9844,-0.5 L 7.34339,-6.01551 c -2.1797,-0.26953 -3.7031,-0.77344 -4.5781,-1.5156 -0.875,-0.73828 -1.3125,-1.8594 -1.3125,-3.3594 0,-1.625 0.55078,-2.8281 1.6562,-3.6094 1.1133,-0.78906 2.8203,-1.1875 5.125,-1.1875 0.89453,0 1.8359,0.07422 2.8281,0.21875 1,0.13672 2.082,0.35156 3.25,0.64062 z"
         id="path212" />
    </symbol>
    <symbol
       id="r"
       overflow="visible">
      <path
         d="m 12.422,-21.281 v 3.2188 H 9.7189 c -0.6875,0 -1.1719,0.125 -1.4531,0.375 -0.27344,0.25 -0.40625,0.6875 -0.40625,1.3125 v 1.0625 h 4.1875 v 3.5 H 7.85955 V -2e-4 h -4.8906 v -11.812 h -2.4375 v -3.5 h 2.4375 v -1.0625 c 0,-1.6641 0.46094,-2.8984 1.3906,-3.7031 0.92578,-0.80078 2.3672,-1.2031 4.3281,-1.2031 z"
         id="path215" />
    </symbol>
    <symbol
       id="q"
       overflow="visible">
      <path
         d="m 16.547,-12.766 c 0.61328,-0.94531 1.3477,-1.6719 2.2031,-2.1719 0.85156,-0.5 1.7891,-0.75 2.8125,-0.75 1.7578,0 3.0977,0.54688 4.0156,1.6406 0.92578,1.0859 1.3906,2.6562 1.3906,4.7188 V -4e-4 h -4.9219 v -7.9844 -0.35938 c 0.0078,-0.13281 0.01563,-0.32031 0.01563,-0.5625 0,-1.082 -0.16406,-1.8633 -0.48438,-2.3438 -0.3125,-0.48828 -0.82422,-0.73438 -1.5312,-0.73438 -0.92969,0 -1.6484,0.38672 -2.1562,1.1562 -0.51172,0.76172 -0.77344,1.8672 -0.78125,3.3125 v 7.5156 h -4.9219 v -7.9844 c 0,-1.6953 -0.14844,-2.7852 -0.4375,-3.2656 -0.29297,-0.48828 -0.8125,-0.73438 -1.5625,-0.73438 -0.9375,0 -1.6641,0.38672 -2.1719,1.1562 -0.51172,0.76172 -0.76562,1.8594 -0.76562,3.2969 v 7.5312 h -4.9219 v -15.312 h 4.9219 v 2.2344 c 0.60156,-0.86328 1.2891,-1.5156 2.0625,-1.9531 0.78125,-0.4375 1.6406,-0.65625 2.5781,-0.65625 1.0625,0 2,0.25781 2.8125,0.76562 0.8125,0.51172 1.4258,1.2305 1.8438,2.1562 z"
         id="path218" />
    </symbol>
    <symbol
       id="p"
       overflow="visible">
      <path
         d="M 17.75,-9.3281 V 0 h -4.9219 v -7.1094 c 0,-1.3438 -0.03125,-2.2656 -0.09375,-2.7656 -0.0625,-0.5 -0.16797,-0.86719 -0.3125,-1.1094 -0.1875,-0.3125 -0.44922,-0.55469 -0.78125,-0.73438 -0.32422,-0.17578 -0.69531,-0.26562 -1.1094,-0.26562 -1.0234,0 -1.8242,0.39844 -2.4062,1.1875 -0.58594,0.78125 -0.875,1.8711 -0.875,3.2656 V -1e-4 H 2.3594 v -21.281 H 7.25 v 8.2031 c 0.73828,-0.88281 1.5195,-1.5391 2.3438,-1.9688 0.83203,-0.42578 1.75,-0.64062 2.75,-0.64062 1.7695,0 3.1133,0.54688 4.0312,1.6406 0.91406,1.0859 1.375,2.6562 1.375,4.7188 z"
         id="path221" />
    </symbol>
    <symbol
       id="o"
       overflow="visible">
      <path
         d="m 2.5781,-20.406 h 5.875 l 7.4219,14 v -14 h 4.9844 V 0 h -5.875 L 7.5625,-14 V 0 H 2.5781 Z"
         id="path224" />
    </symbol>
    <symbol
       id="n"
       overflow="visible">
      <path
         d="m 2.1875,-5.9688 v -9.3438 h 4.9219 v 1.5312 c 0,0.83594 -0.00781,1.875 -0.015625,3.125 -0.011719,1.25 -0.015625,2.0859 -0.015625,2.5 0,1.2422 0.03125,2.1328 0.09375,2.6719 0.070313,0.54297 0.17969,0.93359 0.32812,1.1719 0.20703,0.32422 0.47266,0.57422 0.79688,0.75 0.32031,0.16797 0.69141,0.25 1.1094,0.25 1.0195,0 1.8203,-0.39062 2.4062,-1.1719 0.58203,-0.78125 0.875,-1.8672 0.875,-3.2656 v -7.5625 h 4.8906 V -6e-4 H 12.6875 V -2.2194 C 11.94531,-1.32096 11.1641,-0.6608 10.3437,-0.235 9.51948,0.17906 8.6093,0.39 7.6093,0.39 5.8476,0.39 4.5038,-0.14906 3.5781,-1.235 2.64841,-2.317 2.1875,-3.8952 2.1875,-5.9694 Z"
         id="path227" />
    </symbol>
    <symbol
       id="m"
       overflow="visible">
      <path
         d="m 2.5781,-20.406 h 8.7344 c 2.5938,0 4.582,0.57812 5.9688,1.7344 1.3945,1.1484 2.0938,2.7891 2.0938,4.9219 0,2.1367 -0.69922,3.7812 -2.0938,4.9375 -1.3867,1.1562 -3.375,1.7344 -5.9688,1.7344 H 7.8281 V 3e-4 h -5.25 z m 5.25,3.8125 v 5.7031 H 10.75 c 1.0195,0 1.8047,-0.25 2.3594,-0.75 0.5625,-0.5 0.84375,-1.2031 0.84375,-2.1094 0,-0.91406 -0.28125,-1.6172 -0.84375,-2.1094 -0.55469,-0.48828 -1.3398,-0.73438 -2.3594,-0.73438 z"
         id="path230" />
    </symbol>
    <symbol
       id="l"
       overflow="visible">
      <path
         d="M 2.3594,-15.312 H 7.25 v 15.031 c 0,2.0508 -0.49609,3.6172 -1.4844,4.7031 -0.98047,1.082 -2.4062,1.625 -4.2812,1.625 H -0.9375 V 2.8283 h 0.85938 c 0.92578,0 1.5625,-0.21094 1.9062,-0.625 0.35156,-0.41797 0.53125,-1.2461 0.53125,-2.4844 z m 0,-5.9688 H 7.25 v 4 H 2.3594 Z"
         id="path233" />
    </symbol>
  </defs>
  <g
     id="g328"
     transform="translate(-120.65126,-28.4655)">
    <path
       d="m 180.31,229.35 c -3.1289,-0.29297 -5.7891,2.0391 -6.043,5.1172 l -6.7305,81.082 c -0.25781,3.0781 2.0312,5.7852 5.1133,6.043 0.15625,0.0117 0.32031,0.0156 0.46875,0.0156 2.8828,0 5.332,-2.2109 5.5703,-5.1367 l 6.7305,-81.082 c 0.25781,-3.0781 -2.0312,-5.7852 -5.1133,-6.043 z"
       id="path238" />
    <path
       d="m 171.34,337.48 c -3.1484,-0.24609 -5.7891,2.0391 -6.043,5.1172 l -2.6055,31.344 c -0.25781,3.0859 2.0312,5.7891 5.1133,6.0469 0.15625,0.0117 0.32031,0.0156 0.46875,0.0156 2.8828,0 5.332,-2.2109 5.5703,-5.1367 l 2.6055,-31.344 c 0.25781,-3.0859 -2.0312,-5.7891 -5.1133,-6.0469 z"
       id="path240" />
    <path
       d="m 579.11,514.91 -10.566,-35.57 c 0,0 -30.07,-361.79 -30.172,-362.14 -0.52734,-1.8086 -1.9375,-3.2383 -3.7344,-3.7969 l -116.54,-36.262 -0.004,-43.074 c 0,-3.0898 -2.5039,-5.6016 -5.6016,-5.6016 h -125 c -3.0977,0 -5.6016,2.5078 -5.6016,5.6016 v 43.074 l -116.68,36.305 c -1.7656,0.58984 -3.125,2.0156 -3.6172,3.8125 -0.14062,0.49219 -0.19141,0.99609 -0.19141,1.4961 l -29.953,360.59 -10.566,35.57 c -0.46484,1.5625 -0.22266,3.2539 0.66016,4.625 0.87891,1.3711 2.3203,2.2891 3.9375,2.5156 l 67.543,9.418 c 0.25781,0.0391 0.51953,0.0547 0.77734,0.0547 2.5352,0 4.8047,-1.7305 5.4336,-4.2578 l 8.0547,-32.609 18.691,-32.586 h 248.04 l 18.691,32.586 8.0547,32.609 c 0.62109,2.5312 2.8945,4.2578 5.4336,4.2578 0.25781,0 0.51953,-0.0156 0.77734,-0.0547 l 67.543,-9.418 c 1.6172,-0.22266 3.0586,-1.1406 3.9375,-2.5156 0.88672,-1.3711 1.125,-3.0586 0.66016,-4.625 z m -78.277,-28.605 -17.977,-31.332 v -227.73 c 0,-26.453 9.4531,-52.109 26.609,-72.234 l 19.047,-22.34 28.504,343.19 -56.184,10.457 z m -29.176,-137.78 h -70.566 v -26.926 h 70.566 z m -57.008,11.199 h 57.008 V 429.79 H 426.38 c -6.4688,0 -11.73,-5.2656 -11.73,-11.738 z M 293.099,39.674 h 113.8 v 35.973 h -113.8 z m -64.754,320.06 h 57.008 v 58.328 c 0,6.4727 -5.2578,11.738 -11.73,11.738 h -45.277 z m 62.609,-11.199 h -62.609 v -26.926 h 70.566 v 26.926 z m -73.809,-32.523 v 138.98 l -17.977,31.332 -56.184,-10.457 28.504,-343.19 19.047,22.34 c 17.16,20.125 26.609,45.781 26.609,72.234 z m 113.64,134.86 v -364 h 38.445 v 364 z"
       id="path242" />
    <path
       d="m 350,127.41 c -8.2266,0 -14.918,6.6914 -14.918,14.918 0,8.2266 6.6914,14.918 14.918,14.918 8.2266,0 14.918,-6.6914 14.918,-14.918 0,-8.2266 -6.6914,-14.918 -14.918,-14.918 z"
       id="path244" />
    <path
       d="m 350,220.01 c -8.2266,0 -14.918,6.6914 -14.918,14.918 0,8.2266 6.6914,14.918 14.918,14.918 8.2266,0 14.918,-6.6914 14.918,-14.918 0,-8.2266 -6.6914,-14.918 -14.918,-14.918 z"
       id="path246" />
    <path
       d="m 350,312.6 c -8.2266,0 -14.918,6.6914 -14.918,14.918 0,8.2266 6.6914,14.918 14.918,14.918 8.2266,0 14.918,-6.6914 14.918,-14.918 0,-8.2266 -6.6914,-14.918 -14.918,-14.918 z"
       id="path248" />
    <path
       d="m 350,405.2 c -8.2266,0 -14.918,6.6914 -14.918,14.918 0,8.2266 6.6914,14.918 14.918,14.918 8.2266,0 14.918,-6.6914 14.918,-14.918 0,-8.2266 -6.6914,-14.918 -14.918,-14.918 z"
       id="path250" />
    <path
       style="fill:#ffffff;stroke:none;stroke-width:1.48968;stroke-dasharray:2.97936, 2.97935999999999979;stop-color:#000000"
       d="M 230.12265,39.298253 V 15.649604 h 75.67568 75.67567 v 23.648649 23.648649 h -75.67567 -75.67568 z"
       id="path336"
       transform="matrix(0.75000001,0,0,0.75000001,120.65126,28.4655)" />
    <path
       style="fill:#ffffff;stroke:none;stroke-width:1.48968;stroke-dasharray:2.97936, 2.97935999999999979;stop-color:#000000"
       d="M 280.5731,320.71717 V 78.712667 h 25.22523 25.22522 V 320.71717 562.72168 H 305.79833 280.5731 Z m 38.85223,216.28734 c 4.72876,-4.33357 5.82127,-6.54572 6.42366,-13.00675 0.9556,-10.24946 -3.83456,-17.80462 -13.40161,-21.13739 -5.84825,-2.03728 -7.44986,-2.03728 -13.29811,0 -9.56705,3.33277 -14.3572,10.88793 -13.4016,21.13739 0.60238,6.46103 1.6949,8.67318 6.42365,13.00675 4.87078,4.46375 6.84874,5.22167 13.62701,5.22167 6.77826,0 8.75623,-0.75792 13.627,-5.22167 z M 315.4058,416.8118 c 14.10183,-7.29234 14.10183,-28.81583 0,-36.10818 -9.66724,-4.99911 -21.379,-1.75238 -27.01364,7.48874 -10.68343,17.5214 8.72076,38.07906 27.01364,28.61944 z m -0.92019,-122.80155 c 10.27515,-4.29324 14.61813,-17.34554 9.41787,-28.30426 -6.62779,-13.96704 -29.58252,-13.96704 -36.21031,0 -5.11831,10.78605 -0.90562,23.89976 9.07089,28.23683 6.57262,2.85731 11.00408,2.87416 17.72155,0.0675 z m 2.47417,-124.9693 c 14.2231,-8.40179 11.42759,-31.12324 -4.5124,-36.67607 -17.61197,-6.13527 -32.92232,11.73605 -24.77076,28.91419 1.30559,2.75132 4.32079,6.20959 6.70045,7.68505 5.58993,3.46593 16.78097,3.504 22.58271,0.0768 z"
       id="path338"
       transform="matrix(0.75000001,0,0,0.75000001,120.65126,28.4655)" />
    <path
       style="fill:#ffffff;stroke:none;stroke-width:1.48968;stroke-dasharray:2.97936, 2.97935999999999979;stop-color:#000000"
       d="m 495.73654,588.9429 -11.86872,-20.54679 0.45503,-164.04217 0.45503,-164.04217 3.64085,-12.56551 c 4.32674,-14.93276 12.16472,-32.36695 19.28228,-42.89003 7.33701,-10.84751 35.16166,-43.77718 35.58276,-42.11116 1.3965,5.52498 37.30418,451.56836 36.42337,452.44918 -0.61753,0.61753 -17.09307,4.08663 -36.61233,7.70911 l -35.48954,6.58633 z"
       id="path340"
       transform="matrix(0.75000001,0,0,0.75000001,120.65126,28.4655)" />
    <path
       style="fill:#ffffff;stroke:none;stroke-width:1.48968;stroke-dasharray:2.97936, 2.97935999999999979;stop-color:#000000"
       d="m 375.1677,408.21717 v -17.34234 h 45.72072 45.72072 v 17.34234 17.34234 H 420.88842 375.1677 Z"
       id="path342"
       transform="matrix(0.75000001,0,0,0.75000001,120.65126,28.4655)" />
    <path
       style="fill:#ffffff;stroke:none;stroke-width:1.48968;stroke-dasharray:2.97936, 2.97935999999999979;stop-color:#000000"
       d="m 401.0554,532.53883 c -7.90405,-3.83531 -8.54536,-7.59306 -8.54536,-50.07167 v -39.5653 h 37.04955 37.04955 v 45.72072 45.72072 l -31.13739,-0.1067 c -17.48997,-0.0599 -32.57455,-0.80407 -34.41635,-1.69777 z"
       id="path344"
       transform="matrix(0.75000001,0,0,0.75000001,120.65126,28.4655)" />
    <path
       style="fill:#ffffff;stroke:none;stroke-width:1.48968;stroke-dasharray:2.97936, 2.97935999999999979;stop-color:#000000"
       d="m 144.98752,488.62258 v -45.72072 h 37.04955 37.04955 v 39.5653 c 0,42.92909 -0.61251,46.34093 -9.00592,50.16522 -2.28881,1.04285 -15.73049,1.71092 -34.42412,1.71092 h -30.66906 z"
       id="path346"
       transform="matrix(0.75000001,0,0,0.75000001,120.65126,28.4655)" />
    <path
       style="fill:#ffffff;stroke:none;stroke-width:1.48968;stroke-dasharray:2.97936, 2.97935999999999979;stop-color:#000000"
       d="m 144.98752,408.21717 v -17.34234 h 45.72072 45.72072 v 17.34234 17.34234 h -45.72072 -45.72072 z"
       id="path348"
       transform="matrix(0.75000001,0,0,0.75000001,120.65126,28.4655)" />
    <path
       style="fill:#ffffff;stroke:none;stroke-width:1.48968;stroke-dasharray:2.97936, 2.97935999999999979;stop-color:#000000"
       d="m 68.058073,602.94919 c -19.332589,-3.70509 -35.631925,-7.2183 -36.220745,-7.80714 -0.846418,-0.84642 35.132463,-447.08329 36.475553,-452.39698 0.421104,-1.66602 28.245757,31.26365 35.582759,42.11116 7.12471,10.53365 14.96033,27.96914 19.27506,42.89003 l 3.63361,12.56551 0.46901,164.1767 0.46901,164.1767 -11.99419,20.67691 c -6.5968,11.37229 -12.11697,20.60191 -12.26704,20.51028 -0.15008,-0.0916 -16.090436,-3.19805 -35.423027,-6.90317 z m 0.379615,-135.35266 c 2.392701,-1.74957 3.236563,-6.22019 4.973274,-26.34737 1.89578,-21.97063 1.852728,-24.50421 -0.459813,-27.05954 -1.403287,-1.55061 -4.105164,-2.81929 -6.004173,-2.81929 -6.667434,0 -8.130855,4.18202 -10.126209,28.93779 -1.733721,21.50972 -1.667145,23.66347 0.81632,26.40766 3.178711,3.51244 6.797942,3.80757 10.800601,0.88075 z m 8.685606,-80.269 c 0.790652,-1.95101 3.415425,-28.63501 5.832827,-59.29779 l 4.395281,-55.75049 -3.496005,-2.83089 c -3.616356,-2.92835 -8.530278,-2.62788 -11.28385,0.68997 -2.475512,2.98281 -11.429598,114.10121 -9.486947,117.73109 2.424247,4.52974 12.135314,4.15491 14.038694,-0.54189 z"
       id="path350"
       transform="matrix(0.75000001,0,0,0.75000001,120.65126,28.4655)" />
  </g>
</svg>
